<svg 
 xmlns="http://www.w3.org/2000/svg"
 xmlns:xlink="http://www.w3.org/1999/xlink"
 width="11px" height="18px">
<path fill-rule="evenodd"  fill="rgb(74, 74, 93)"
 d="M10.508,2.694 L3.987,8.992 L10.508,15.289 C11.147,15.906 11.147,16.907 10.508,17.525 C9.869,18.142 8.832,18.142 8.193,17.525 L0.706,10.295 C0.630,10.244 0.543,10.213 0.475,10.147 C0.145,9.829 -0.008,9.409 0.003,8.992 C-0.008,8.574 0.145,8.155 0.475,7.836 C0.543,7.771 0.629,7.740 0.706,7.688 L8.193,0.458 C8.832,-0.159 9.869,-0.159 10.508,0.458 C11.147,1.076 11.147,2.077 10.508,2.694 Z"/>
</svg>
