<svg id="Grupa_1" data-name="Grupa 1" xmlns="http://www.w3.org/2000/svg" width="56.03" height="52" viewBox="0 0 56.03 52">
  <defs>
  </defs>
  <path class="cls-1" d="M1506.79,58.7a5.553,5.553,0,0,0-4.34-2.152h-35.26l-1.1-4.3A5.578,5.578,0,0,0,1460.7,48h-5.9a1.8,1.8,0,0,0,0,3.606h5.9a1.909,1.909,0,0,1,1.85,1.454l7.07,28.268a5.575,5.575,0,0,0,5.38,4.246h23.11a5.523,5.523,0,0,0,5.38-4.246l4.34-17.915A5.336,5.336,0,0,0,1506.79,58.7Zm-2.49,3.9-4.34,17.915a1.909,1.909,0,0,1-1.85,1.454H1475a1.909,1.909,0,0,1-1.85-1.454l-5.04-20.3h34.34a1.928,1.928,0,0,1,1.51.756A1.831,1.831,0,0,1,1504.3,62.6Zm-28.08,25.3a6.049,6.049,0,1,0,6.02,6.049A6.067,6.067,0,0,0,1476.22,87.9Zm0,8.434a2.385,2.385,0,1,1,2.37-2.385A2.428,2.428,0,0,1,1476.22,96.336Zm19.92-8.434a6.049,6.049,0,1,0,6.02,6.049A6.067,6.067,0,0,0,1496.14,87.9Zm0,8.434a2.385,2.385,0,1,1,2.37-2.385A2.428,2.428,0,0,1,1496.14,96.336Z" transform="translate(-1452 -48)"/>
  <circle class="cls-2" cx="14.5" cy="27.5" r="14.5"/>
  <text id="_3" data-name="3" class="cls-3" x="11" y="33">3</text>
</svg>
