<svg xmlns="http://www.w3.org/2000/svg" width="55.031" height="52" viewBox="0 0 55.031 52">
  <defs>
    <style>
      .cls-1 {
        fill: #fff;
        fill-rule: evenodd;
      }
    </style>
  </defs>
  <path id="Shape_2_copy" data-name="Shape 2 copy" class="cls-1" d="M962.793,638.7a5.564,5.564,0,0,0-4.343-2.152H923.186l-1.1-4.3A5.571,5.571,0,0,0,916.7,628H910.8a1.8,1.8,0,0,0,0,3.606H916.7a1.916,1.916,0,0,1,1.853,1.454l7.064,28.269A5.572,5.572,0,0,0,931,665.575h23.1a5.521,5.521,0,0,0,5.385-4.246l4.343-17.915A5.353,5.353,0,0,0,962.793,638.7Zm-2.49,3.9-4.343,17.915a1.915,1.915,0,0,1-1.853,1.454H931a1.915,1.915,0,0,1-1.853-1.454l-5.037-20.3H958.45a1.915,1.915,0,0,1,1.5.757A1.831,1.831,0,0,1,960.3,642.6Zm-28.084,25.3a6.05,6.05,0,1,0,6.022,6.049A6.069,6.069,0,0,0,932.219,667.9Zm0,8.434a2.385,2.385,0,1,1,2.374-2.385A2.429,2.429,0,0,1,932.219,676.335Zm19.919-8.434a6.05,6.05,0,1,0,6.022,6.049A6.069,6.069,0,0,0,952.138,667.9Zm0,8.434a2.385,2.385,0,1,1,2.374-2.385A2.429,2.429,0,0,1,952.138,676.335Z" transform="translate(-909 -628)"/>
</svg>
