<svg xmlns="http://www.w3.org/2000/svg" width="33.97" height="32" viewBox="0 0 33.97 32">
  <defs>

  </defs>
  <path id="Shape_2_copy_7" data-name="Shape 2 copy 7" class="cls-1" d="M1560.23,1332.59a3.411,3.411,0,0,0-2.68-1.33h-21.79l-0.67-2.65a3.448,3.448,0,0,0-3.33-2.61h-3.65a1.11,1.11,0,1,0,0,2.22h3.65a1.183,1.183,0,0,1,1.14.89l4.37,17.4a3.428,3.428,0,0,0,3.32,2.61h14.28a3.414,3.414,0,0,0,3.33-2.61l2.68-11.02A3.28,3.28,0,0,0,1560.23,1332.59Zm-1.53,2.39-2.69,11.03a1.164,1.164,0,0,1-1.14.89h-14.28a1.172,1.172,0,0,1-1.14-.89l-3.11-12.49h21.21a1.19,1.19,0,0,1,.93.46A1.135,1.135,0,0,1,1558.7,1334.98Zm-17.35,15.57a3.725,3.725,0,1,0,3.72,3.73A3.747,3.747,0,0,0,1541.35,1350.55Zm0,5.19a1.465,1.465,0,1,1,1.46-1.46A1.5,1.5,0,0,1,1541.35,1355.74Zm12.3-5.19a3.725,3.725,0,1,0,3.72,3.73A3.747,3.747,0,0,0,1553.65,1350.55Zm0,5.19a1.465,1.465,0,1,1,1.47-1.46A1.5,1.5,0,0,1,1553.65,1355.74Z" transform="translate(-1527 -1326)"/>
</svg>
