<svg xmlns="http://www.w3.org/2000/svg" width="24" height="21" viewBox="0 0 24 21">
  <defs>
    <style>
      .cls-1 {
        fill: #e10b2f;
        fill-rule: evenodd;
      }
    </style>
  </defs>
  <path id="Shape_7_copy" data-name="Shape 7 copy" class="cls-1" d="M1181.01,2566.78a4.638,4.638,0,0,0-4.49-4.79h-15.04a4.638,4.638,0,0,0-4.49,4.79v11.43a4.64,4.64,0,0,0,4.49,4.8h15.04a4.64,4.64,0,0,0,4.49-4.8v-11.43Zm-19.53-2.58h15.04a2.389,2.389,0,0,1,2.25,1.62l-9.15,7.6a1.05,1.05,0,0,1-1.28,0l-9.11-7.6A2.428,2.428,0,0,1,1161.48,2564.2Zm15.04,16.59h-15.04a2.486,2.486,0,0,1-2.42-2.58v-9.7l8.04,6.68a2.929,2.929,0,0,0,3.8,0l8.04-6.68v9.7A2.486,2.486,0,0,1,1176.52,2580.79Z" transform="translate(-1157 -2562)"/>
</svg>
