<svg xmlns="http://www.w3.org/2000/svg" width="15" height="13" viewBox="0 0 15 13">
  <defs>
    <style>
      .cls-1 {
        fill: #e10b2f;
        fill-rule: evenodd;
      }
    </style>
  </defs>
  <path class="cls-1" d="M1416.01,15.96a2.89,2.89,0,0,0-2.81-2.968h-9.4a2.89,2.89,0,0,0-2.81,2.968v7.076A2.89,2.89,0,0,0,1403.8,26h9.4a2.89,2.89,0,0,0,2.81-2.967V15.96Zm-12.21-1.6h9.4a1.478,1.478,0,0,1,1.4,1l-5.71,4.7a0.652,0.652,0,0,1-.8,0l-5.69-4.7A1.5,1.5,0,0,1,1403.8,14.362Zm9.4,10.272h-9.4a1.547,1.547,0,0,1-1.51-1.6v-6l5.02,4.132a1.849,1.849,0,0,0,2.38,0l5.02-4.132v6A1.547,1.547,0,0,1,1413.2,24.634Z" transform="translate(-1401 -13)"/>
</svg>
