<?xml version="1.0" encoding="utf-8"?>
<!-- Generator: Adobe Illustrator 16.0.0, SVG Export Plug-In . SVG Version: 6.00 Build 0)  -->
<!DOCTYPE svg PUBLIC "-//W3C//DTD SVG 1.1//EN" "http://www.w3.org/Graphics/SVG/1.1/DTD/svg11.dtd">
<svg version="1.1" id="Warstwa_1" xmlns="http://www.w3.org/2000/svg" xmlns:xlink="http://www.w3.org/1999/xlink" x="0px" y="0px"
	 width="110.324px" height="23.921px" viewBox="0 0 110.324 23.921" enable-background="new 0 0 110.324 23.921"
	 xml:space="preserve">
<path fill-rule="evenodd" clip-rule="evenodd" fill="#29314F" d="M0,6.858c0-1.104,0.895-2,2-2h9.998v0.001
	c0.015,0,0.029-0.001,0.044-0.001c0.552,0,1,0.448,1,1c0,0.552-0.447,1-1,1c-0.015,0-0.029,0-0.044-0.001v0.001H2v3.913h6.303h0.043
	v0c0.532,0.023,0.956,0.461,0.956,0.999s-0.424,0.976-0.956,0.999v0.001H8.303H2v3.912h9.998v0.001
	c0.015-0.001,0.029-0.001,0.044-0.001c0.552,0,1,0.447,1,1s-0.447,1-1,1c-0.015,0-0.029,0-0.044-0.001v0.001H2c-1.104,0-2-0.896-2-2
	V12.77v-2V6.858L0,6.858z M76.417,17.726c-0.022,0.532-0.461,0.956-0.998,0.956c-0.538,0-0.977-0.424-0.999-0.956h-0.001v-0.044
	V5.901h0.001c-0.001-0.014-0.001-0.029-0.001-0.043c0-0.552,0.447-1,1-1c0.552,0,1,0.448,1,1c0,0.015-0.001,0.029-0.002,0.043h0.002
	v11.78v0.044H76.417L76.417,17.726z M99.283,4.858h9.042c1.075,0,1.952,0.849,1.997,1.913h0.002v0.087v9.824
	c0,1.104-0.895,2-1.999,2h-9.042c-1.075,0-1.952-0.849-1.997-1.913h-0.002v-0.087V6.858C97.284,5.753,98.179,4.858,99.283,4.858
	L99.283,4.858z M108.325,6.858h-9.042v9.824h9.042V6.858L108.325,6.858z M92.372,4.858c0.552,0,0.999,0.448,0.999,1
	c0,0.552-0.447,1-0.999,1c-0.015,0-0.029,0-0.044-0.001v0.001H82.33v9.824h9.998v0.001c0.015-0.001,0.029-0.001,0.044-0.001
	c0.552,0,0.999,0.447,0.999,1s-0.447,1-0.999,1c-0.015,0-0.029,0-0.044-0.001v0.001H82.33c-1.075,0-1.952-0.849-1.997-1.913h-0.002
	v-0.087V6.858c0-1.104,0.896-2,1.999-2h9.998v0.001C92.343,4.859,92.357,4.858,92.372,4.858L92.372,4.858z M58.64,4.858
	c0.552,0,1,0.448,1,1c0,0.015,0,0.029-0.001,0.043h0.001v10.781h9.998v0.001c0.014-0.001,0.028-0.001,0.043-0.001
	c0.553,0,1,0.447,1,1s-0.447,1-1,1c-0.015,0-0.029,0-0.043-0.001v0.001H59.64c-1.075,0-1.952-0.849-1.998-1.913H57.64v-0.087V5.901
	h0.001c0-0.014-0.001-0.029-0.001-0.043C57.64,5.306,58.088,4.858,58.64,4.858L58.64,4.858z M41.729,17.726
	c-0.023,0.532-0.461,0.956-0.999,0.956s-0.976-0.424-0.999-0.956H39.73v-0.044V6.858c0-1.104,0.896-2,2-2h9.999
	c1.104,0,1.999,0.895,1.999,2v3.913c0,1.104-0.895,2-1.999,2H41.73v4.912L41.729,17.726L41.729,17.726L41.729,17.726z
	 M51.729,10.771V6.858H41.73v3.913H51.729z"/>
<path fill-rule="evenodd" clip-rule="evenodd" fill="#ED1B34" d="M42.991,0.013c0.014,0,0.029,0,0.043,0.001V0.013h66.291h0.13
	v0.009c0.491,0.063,0.869,0.483,0.869,0.991c0,0.508-0.378,0.927-0.869,0.991v0.008h-0.13H43.034V2.011
	c-0.014,0.001-0.029,0.001-0.043,0.001c-0.552,0-1-0.447-1-1S42.439,0.013,42.991,0.013L42.991,0.013z M1.043,21.921h9.346h0.13
	v0.008c0.49,0.064,0.87,0.483,0.87,0.991c0,0.508-0.379,0.928-0.87,0.991v0.009h-0.13H1.043V23.92c-0.014,0-0.029,0.001-0.043,0.001
	c-0.552,0-1-0.448-1-1s0.447-1,1-1C1.014,21.921,1.029,21.921,1.043,21.921L1.043,21.921L1.043,21.921z M43.034,21.921h66.291h0.13
	v0.008c0.491,0.064,0.869,0.483,0.869,0.991c0,0.508-0.378,0.928-0.869,0.991v0.009h-0.13H43.034V23.92
	c-0.014,0-0.029,0.001-0.043,0.001c-0.552,0-1-0.448-1-1s0.448-1,1-1C43.005,21.921,43.02,21.921,43.034,21.921L43.034,21.921
	L43.034,21.921z M1.043,0.013h9.346h0.13v0.009c0.49,0.063,0.87,0.483,0.87,0.991c0,0.508-0.379,0.927-0.87,0.991v0.008h-0.13H1.043
	V2.011C1.029,2.012,1.014,2.012,1,2.012c-0.552,0-1-0.447-1-1s0.447-1,1-1c0.015,0,0.029,0,0.043,0.001V0.013z"/>
<path fill-rule="evenodd" clip-rule="evenodd" fill="#ED1B34" d="M37.432,0c0.648,0,1.174,0.525,1.174,1.173
	c0,0.324-0.131,0.618-0.344,0.83h0L28.74,11.38c-0.297,0.329-0.297,0.831,0,1.16l9.522,9.376c0.212,0.212,0.344,0.506,0.344,0.83
	c0,0.648-0.525,1.174-1.174,1.174c-0.324,0-0.617-0.131-0.83-0.344l-9.57-9.424c-0.326-0.271-0.804-0.266-1.124,0.016l-9.555,9.409
	c-0.212,0.212-0.506,0.344-0.83,0.344c-0.648,0-1.174-0.525-1.174-1.174c0-0.324,0.131-0.618,0.344-0.83l9.516-9.37
	c0.306-0.331,0.305-0.843-0.001-1.174l-9.515-9.37l0,0c-0.213-0.212-0.344-0.506-0.344-0.83C14.35,0.525,14.875,0,15.524,0
	c0.324,0,0.618,0.131,0.83,0.344l9.567,9.421c0.328,0.275,0.811,0.269,1.132-0.017l9.55-9.404C36.815,0.131,37.108,0,37.432,0z"/>
</svg>
