<svg xmlns="http://www.w3.org/2000/svg" width="27.03" height="17" viewBox="0 0 27.03 17">
  <defs>
    <style>
      .cls-1 {
        fill: #c7c7ce;
        fill-rule: evenodd;
      }
    </style>
  </defs>
  <path class="cls-1" d="M1111.5,391c-5.7,0-10.61,4.473-12.88,6.931a2.289,2.289,0,0,0,0,3.138c2.27,2.455,7.18,6.931,12.88,6.931s10.61-4.473,12.88-6.931a2.289,2.289,0,0,0,0-3.138C1122.12,395.473,1117.2,391,1111.5,391Zm1.03,13.664a5.337,5.337,0,0,1-6.33-6.17,5.7,5.7,0,0,1,4.27-4.164,5.347,5.347,0,0,1,6.34,6.169A5.73,5.73,0,0,1,1112.53,404.664Zm-0.98-9.04a4.021,4.021,0,0,0-2.9,1.171,3.855,3.855,0,0,0-1.13,2.65,3.812,3.812,0,0,0,1.21,2.826,4.046,4.046,0,0,0,5.62-.072,3.8,3.8,0,0,0-.07-5.477A4.044,4.044,0,0,0,1111.55,395.624Z" transform="translate(-1098 -391)"/>
</svg>
