<svg xmlns="http://www.w3.org/2000/svg" width="16" height="16" viewBox="0 0 16 16">
  <defs>

  </defs>
  <path d="M1281.21,27c-1.87,0-4.42-.81-7.39-3.872-3.28-3.4-3.89-6.184-3.81-7.923a5.143,5.143,0,0,1,1.57-3.655,2.091,2.091,0,0,1,2.04-.454,5.114,5.114,0,0,1,2.91,2.984c0.33,1.106-.41,1.976-1.02,2.687a2.392,2.392,0,0,0-.65.988h0a19.958,19.958,0,0,0,3.58,4.05c0.8,0.771,1.06.573,1.59,0.02,0.14-.138.25-0.277,0.37-0.415a2.813,2.813,0,0,1,1.93-1.185c1.31-.138,2.9,1.5,3.42,2.272,0.68,1.027-.12,2.588-1.22,3.517A5.876,5.876,0,0,1,1281.21,27Zm-8.24-14.818a0.908,0.908,0,0,0-.63.257,3.963,3.963,0,0,0-1.17,2.805c-0.06,1.5.49,3.952,3.49,7.054,4.56,4.722,8.12,3.616,9.1,2.786,0.75-.632,1.24-1.581,1-1.936-0.55-.81-1.77-1.8-2.32-1.739a1.625,1.625,0,0,0-1.15.79c-0.12.138-.26,0.3-0.42,0.454-0.72.751-1.77,1.442-3.26,0.02-1.36-1.3-3.69-3.655-3.91-4.623a2.443,2.443,0,0,1,.9-2.035c0.57-.652.93-1.126,0.79-1.561a4.025,4.025,0,0,0-2.1-2.193A0.639,0.639,0,0,0,1272.97,12.181Z" transform="translate(-1270 -11)"/>
</svg>
