<?xml version="1.0" encoding="utf-8"?>
<!-- Generator: Adobe Illustrator 16.0.0, SVG Export Plug-In . SVG Version: 6.00 Build 0)  -->
<!DOCTYPE svg PUBLIC "-//W3C//DTD SVG 1.1//EN" "http://www.w3.org/Graphics/SVG/1.1/DTD/svg11.dtd">
<svg version="1.1" id="Layer_1" xmlns="http://www.w3.org/2000/svg" xmlns:xlink="http://www.w3.org/1999/xlink" x="0px" y="0px"
	 width="20.021px" height="20px" viewBox="0 0 20.021 20" enable-background="new 0 0 20.021 20" xml:space="preserve">
<path d="M15.159,20c-2.476,0-6.426-1.313-10.125-5C2.433,12.406,1.21,9.938,0.646,8.281c-0.689-2-0.846-3.843-0.376-5.063
	c0.376-1,1.536-2.125,2.445-2.656L2.809,0.5C3.248,0.219,3.718,0,4.376,0c0.188,0,0.408,0.031,0.627,0.063
	C5.442,0.157,6.131,0.5,7.166,2.531c0.533,1.063,0.909,2.063,0.909,2.094c0.345,1,0.627,2.156-0.031,2.937
	C7.542,8.157,6.915,8.375,6.414,8.5c0.345,0.438,1.035,1.25,2.445,2.656c1.411,1.406,2.194,2.094,2.633,2.438
	c0.125-0.531,0.345-1.125,0.94-1.625c0.784-0.656,1.881-0.406,2.946-0.031l0,0c0.188,0.063,4.232,1.5,4.577,3.093
	c0.219,1.063-0.157,1.719-0.439,2.188l-0.063,0.093c-0.533,0.907-1.692,2.063-2.665,2.438C16.381,19.906,15.817,20,15.159,20z
	 M4.408,1.25c-0.314,0-0.533,0.094-0.94,0.344L3.373,1.657C2.684,2.063,1.712,3.031,1.461,3.688
	c-0.658,1.75,0.282,6.281,4.482,10.438c3.417,3.406,6.99,4.625,9.215,4.625c0.501,0,0.94-0.063,1.254-0.188
	c0.658-0.25,1.63-1.219,2.038-1.906l0.063-0.094c0.251-0.406,0.438-0.719,0.313-1.312c-0.125-0.469-2.131-1.563-3.762-2.156
	c-1.222-0.438-1.567-0.313-1.755-0.188c-0.439,0.344-0.533,0.875-0.596,1.344c-0.031,0.25-0.063,0.375-0.125,0.5
	c-0.031,0.093-0.094,0.156-0.157,0.219c-0.125,0.125-0.313,0.188-0.501,0.188c-0.439-0.063-1.097-0.344-3.918-3.125
	C5.223,9.25,4.94,8.594,4.877,8.125C4.846,7.906,4.94,7.719,5.097,7.594C5.16,7.531,5.223,7.5,5.285,7.469
	c0.125-0.031,0.251-0.062,0.501-0.125c0.47-0.063,0.972-0.156,1.348-0.594C7.354,6.5,7.291,5.938,6.946,5
	C6.351,3.407,5.254,1.375,4.784,1.25C4.627,1.25,4.501,1.25,4.408,1.25z"/>
</svg>
