<svg xmlns="http://www.w3.org/2000/svg" width="31.25" height="31" viewBox="0 0 31.25 31">
  <defs>
    <style>
      .cls-1 {
        fill: #3a3c55;
        fill-rule: evenodd;
      }
    </style>
  </defs>
  <path id="Shape_6_copy" data-name="Shape 6 copy" class="cls-1" d="M1175.88,2549c-3.65,0-8.63-1.57-14.43-7.5-6.4-6.59-7.59-11.99-7.44-15.35a10.03,10.03,0,0,1,3.07-7.09,4.125,4.125,0,0,1,3.99-.88c2.65,0.77,5.1,3.87,5.68,5.78,0.65,2.15-.81,3.83-2,5.21-0.53.61-1.34,1.57-1.26,1.91h0c0.19,0.73,2.68,3.76,6.98,7.85,1.57,1.49,2.07,1.11,3.1.04,0.27-.27.5-0.54,0.73-0.8a5.492,5.492,0,0,1,3.76-2.3c2.57-.27,5.68,2.91,6.68,4.4,1.34,1.99-.23,5.02-2.38,6.82A11.549,11.549,0,0,1,1175.88,2549Zm-16.08-28.71a1.7,1.7,0,0,0-1.22.5,7.591,7.591,0,0,0-2.3,5.43c-0.12,2.91.95,7.66,6.82,13.67,8.9,9.15,15.84,7,17.76,5.4,1.46-1.23,2.42-3.07,1.96-3.75-1.08-1.57-3.45-3.49-4.53-3.37-0.96.07-1.38,0.53-2.26,1.53-0.23.27-.5,0.57-0.81,0.88-1.42,1.45-3.45,2.79-6.36.04-2.65-2.53-7.21-7.09-7.64-8.96-0.34-1.49.73-2.76,1.77-3.94,1.11-1.27,1.8-2.19,1.53-3.03-0.42-1.34-2.34-3.75-4.1-4.25A1.261,1.261,0,0,0,1159.8,2520.29Z" transform="translate(-1154 -2518)"/>
</svg>
