<svg 
 xmlns="http://www.w3.org/2000/svg"
 xmlns:xlink="http://www.w3.org/1999/xlink"
 width="15px" height="9px">
<path fill-rule="evenodd"  fill="rgb(74, 74, 93)"
 d="M14.604,8.597 C14.090,9.120 13.255,9.120 12.741,8.597 L7.493,3.262 L2.245,8.597 C1.731,9.120 0.896,9.120 0.382,8.597 C-0.133,8.074 -0.133,7.226 0.382,6.703 L6.407,0.577 C6.450,0.515 6.475,0.444 6.530,0.388 C6.795,0.118 7.145,-0.007 7.493,0.002 C7.841,-0.007 8.190,0.118 8.456,0.388 C8.510,0.444 8.536,0.515 8.579,0.577 L14.604,6.703 C15.119,7.226 15.119,8.074 14.604,8.597 Z"/>
</svg>
