<svg 
 xmlns="http://www.w3.org/2000/svg"
 xmlns:xlink="http://www.w3.org/1999/xlink"
 width="15px" height="9px">
<path fill-rule="evenodd"  fill="rgb(74, 74, 93)"
 d="M14.604,2.297 L8.579,8.423 C8.536,8.485 8.510,8.556 8.456,8.612 C8.190,8.881 7.841,9.006 7.493,8.998 C7.145,9.006 6.795,8.881 6.530,8.612 C6.475,8.556 6.450,8.485 6.407,8.423 L0.382,2.297 C-0.133,1.774 -0.133,0.926 0.382,0.403 C0.896,-0.121 1.731,-0.121 2.245,0.403 L7.493,5.738 L12.741,0.403 C13.255,-0.121 14.090,-0.121 14.604,0.403 C15.119,0.926 15.119,1.774 14.604,2.297 Z"/>
</svg>
