<svg 
 xmlns="http://www.w3.org/2000/svg"
 xmlns:xlink="http://www.w3.org/1999/xlink"
 width="16px" height="16px">
<path fill-rule="evenodd"  fill="rgb(74, 74, 93)"
 d="M10.079,7.500 L14.464,11.884 C15.176,12.597 15.176,13.751 14.464,14.464 C13.751,15.176 12.597,15.176 11.884,14.464 L7.500,10.079 L3.115,14.464 C2.403,15.176 1.249,15.176 0.536,14.464 C-0.176,13.751 -0.176,12.597 0.536,11.884 L4.921,7.500 L0.536,3.115 C-0.176,2.403 -0.176,1.249 0.536,0.536 C1.249,-0.176 2.403,-0.176 3.115,0.536 L7.500,4.921 L11.884,0.536 C12.597,-0.176 13.751,-0.176 14.464,0.536 C15.176,1.249 15.176,2.403 14.464,3.115 L10.079,7.500 Z"/>
</svg>
