<svg id="Grupa_1" data-name="Grupa 1" xmlns="http://www.w3.org/2000/svg" width="45.47" height="45" viewBox="0 0 45.47 45">
  <defs>
    <style>
      .cls-1, .cls-3 {
        fill: #e10b2f;
      }

      .cls-2 {
        fill: #f7f7f7;
      }

      .cls-3 {
        font-size: 13px;
        font-family: Montserrat;
        font-weight: 800;
      }
    </style>
  </defs>
  <path id="Ellipse_2_copy" data-name="Ellipse 2 copy" class="cls-1" d="M1233.73,453A22.5,22.5,0,1,1,1211,475.5,22.618,22.618,0,0,1,1233.73,453Zm0,3.841a18.659,18.659,0,1,1-18.85,18.659A18.756,18.756,0,0,1,1233.73,456.841Z" transform="translate(-1211 -453)"/>
  <path id="_" data-name="%" class="cls-1" d="M1226.92,476.608c2.79,0,4.82-1.91,4.82-5.145,0-3.209-2.03-5.145-4.82-5.145-2.76,0-4.8,1.936-4.8,5.145C1222.12,474.7,1224.16,476.608,1226.92,476.608Zm-1.72,8.513h3.86l12.81-18.565h-3.86Zm1.72-11.033c-0.86,0-1.58-.742-1.58-2.625s0.72-2.626,1.58-2.626c0.91,0,1.58.743,1.58,2.626S1227.83,474.088,1226.92,474.088Zm13.24,11.272c2.78,0,4.82-1.909,4.82-5.145,0-3.209-2.04-5.145-4.82-5.145s-4.8,1.936-4.8,5.145C1235.36,483.451,1237.37,485.36,1240.16,485.36Zm0-2.519c-0.89,0-1.59-.743-1.59-2.626s0.7-2.626,1.59-2.626,1.58,0.743,1.58,2.626S1241.04,482.841,1240.16,482.841Z" transform="translate(-1211 -453)"/>
</svg>
