<svg xmlns="http://www.w3.org/2000/svg" width="27.03" height="27" viewBox="0 0 27.03 27">
  <defs>
    <style>
      .cls-1 {
        fill: #3a3c55;
        fill-rule: evenodd;
      }
    </style>
  </defs>
  <path class="cls-1" d="M1245.55,84.446l-4.84-4.809a12.177,12.177,0,1,0-9.56,4.644,12,12,0,0,0,7.46-2.587l4.82,4.876a1.448,1.448,0,0,0,1.06.431,1.592,1.592,0,0,0,1.06-.431A1.477,1.477,0,0,0,1245.55,84.446Zm-5.24-12.306a9.178,9.178,0,1,1-2.69-6.468A9.1,9.1,0,0,1,1240.31,72.14Z" transform="translate(-1219 -60)"/>
</svg>
